<svg width="25" height="25" viewBox="0 0 25 25" fill="none" xmlns="http://www.w3.org/2000/svg">
    <path fill-rule="evenodd" clip-rule="evenodd"
          d="M16.7381 15.7233H17.8674L25 22.8702L22.8702 25L15.7233 17.8674V16.7381L15.3373 16.3379C13.7078 17.7387 11.5923 18.582 9.29102 18.582C4.15952 18.582 0 14.4225 0 9.29102C0 4.15952 4.15952 0 9.29102 0C14.4225 0 18.582 4.15952 18.582 9.29102C18.582 11.5923 17.7387 13.7078 16.3379 15.3373L16.7381 15.7233ZM2.85881 9.29104C2.85881 12.8502 5.73188 15.7233 9.29106 15.7233C12.8502 15.7233 15.7233 12.8502 15.7233 9.29104C15.7233 5.73187 12.8502 2.8588 9.29106 2.8588C5.73188 2.8588 2.85881 5.73187 2.85881 9.29104Z"
          fill="#333"/>
</svg>
