<svg width="50" height="50" viewBox="0 0 50 50" fill="none" xmlns="http://www.w3.org/2000/svg">
<path fill-rule="evenodd" clip-rule="evenodd" d="M24.981 4.16644C13.481 4.16644 4.16846 13.4998 4.16846 24.9998C4.16846 36.4998 13.481 45.8331 24.981 45.8331C36.5018 45.8331 45.8351 36.4998 45.8351 24.9998C45.8351 13.4998 36.5018 4.16644 24.981 4.16644ZM25.0037 41.6662C15.7953 41.6662 8.337 34.2079 8.337 24.9995C8.337 15.7912 15.7953 8.33288 25.0037 8.33288C34.212 8.33288 41.6703 15.7912 41.6703 24.9995C41.6703 34.2079 34.212 41.6662 25.0037 41.6662ZM22.9185 14.5829H26.0435V25.5204L35.4185 31.0829L33.856 33.6454L22.9185 27.0829V14.5829Z" fill="white"/>
</svg>
