<svg width="40" height="43" viewBox="0 0 40 43" fill="none" xmlns="http://www.w3.org/2000/svg">
<path fill-rule="evenodd" clip-rule="evenodd" d="M8.91667 14.2473C11 9.9944 15.1833 7.08823 20 7.08823C26.0667 7.08823 31.1167 11.6779 32.25 17.7915C36.5833 18.1104 40 21.9026 40 26.5809C40 31.4717 36.2667 35.4411 31.6667 35.4411H10C4.48333 35.4411 0 30.6743 0 24.8088C0 19.3331 3.9 14.8144 8.91667 14.2473ZM28.9833 18.4826C28.1333 13.9284 24.3667 10.6323 20 10.6323C16.5667 10.6323 13.4667 12.6525 11.8833 15.8954L11.05 17.5788L9.26667 17.7737C5.88333 18.1459 3.33333 21.1761 3.33333 24.8088C3.33333 28.725 6.31667 31.897 10 31.897H31.6667C34.4167 31.897 36.6667 29.5048 36.6667 26.5809C36.6667 23.8342 34.6333 21.5128 32.0333 21.3356L29.4833 21.1406L28.9833 18.4826Z" fill="white"/>
</svg>
