<svg width="181" height="56" viewBox="0 0 181 56" fill="none" xmlns="http://www.w3.org/2000/svg">
<path d="M27.5391 13.5781H16.5703V44H12.0938V13.5781H1.14844V9.875H27.5391V13.5781ZM42.3984 22.5312C41.7422 22.4219 41.0312 22.3672 40.2656 22.3672C37.4219 22.3672 35.4922 23.5781 34.4766 26V44H30.1406V18.6406H34.3594L34.4297 21.5703C35.8516 19.3047 37.8672 18.1719 40.4766 18.1719C41.3203 18.1719 41.9609 18.2812 42.3984 18.5V22.5312ZM61.125 44C60.875 43.5 60.6719 42.6094 60.5156 41.3281C58.5 43.4219 56.0938 44.4688 53.2969 44.4688C50.7969 44.4688 48.7422 43.7656 47.1328 42.3594C45.5391 40.9375 44.7422 39.1406 44.7422 36.9688C44.7422 34.3281 45.7422 32.2812 47.7422 30.8281C49.7578 29.3594 52.5859 28.625 56.2266 28.625H60.4453V26.6328C60.4453 25.1172 59.9922 23.9141 59.0859 23.0234C58.1797 22.1172 56.8438 21.6641 55.0781 21.6641C53.5312 21.6641 52.2344 22.0547 51.1875 22.8359C50.1406 23.6172 49.6172 24.5625 49.6172 25.6719H45.2578C45.2578 24.4062 45.7031 23.1875 46.5938 22.0156C47.5 20.8281 48.7188 19.8906 50.25 19.2031C51.7969 18.5156 53.4922 18.1719 55.3359 18.1719C58.2578 18.1719 60.5469 18.9062 62.2031 20.375C63.8594 21.8281 64.7188 23.8359 64.7812 26.3984V38.0703C64.7812 40.3984 65.0781 42.25 65.6719 43.625V44H61.125ZM53.9297 40.6953C55.2891 40.6953 56.5781 40.3438 57.7969 39.6406C59.0156 38.9375 59.8984 38.0234 60.4453 36.8984V31.6953H57.0469C51.7344 31.6953 49.0781 33.25 49.0781 36.3594C49.0781 37.7188 49.5312 38.7812 50.4375 39.5469C51.3438 40.3125 52.5078 40.6953 53.9297 40.6953ZM79.5703 38.1172L85.8516 18.6406H90.2812L81.1875 44H77.8828L68.6953 18.6406H73.125L79.5703 38.1172ZM104.648 44.4688C101.211 44.4688 98.4141 43.3438 96.2578 41.0938C94.1016 38.8281 93.0234 35.8047 93.0234 32.0234V31.2266C93.0234 28.7109 93.5 26.4688 94.4531 24.5C95.4219 22.5156 96.7656 20.9688 98.4844 19.8594C100.219 18.7344 102.094 18.1719 104.109 18.1719C107.406 18.1719 109.969 19.2578 111.797 21.4297C113.625 23.6016 114.539 26.7109 114.539 30.7578V32.5625H97.3594C97.4219 35.0625 98.1484 37.0859 99.5391 38.6328C100.945 40.1641 102.727 40.9297 104.883 40.9297C106.414 40.9297 107.711 40.6172 108.773 39.9922C109.836 39.3672 110.766 38.5391 111.562 37.5078L114.211 39.5703C112.086 42.8359 108.898 44.4688 104.648 44.4688ZM104.109 21.7344C102.359 21.7344 100.891 22.375 99.7031 23.6562C98.5156 24.9219 97.7812 26.7031 97.5 29H110.203V28.6719C110.078 26.4688 109.484 24.7656 108.422 23.5625C107.359 22.3438 105.922 21.7344 104.109 21.7344ZM124.289 44H119.953V8H124.289V44Z" fill="#F2F2F2"/>
<path fill-rule="evenodd" clip-rule="evenodd" d="M174.75 13.825C176.083 13.4583 177.467 14.2583 177.817 15.5916C178.167 16.925 177.383 18.2916 176.033 18.675L148.417 26.0583L144.1 18.575L146.517 17.925L149.8 20.4916L158.083 18.275L151.183 6.32498L154.4 5.47498L165.9 16.1916L174.75 13.825ZM176.867 31.1916H145.2V34.525H176.867V31.1916Z" fill="#F2F2F2"/>
</svg>
